<?xml version="1.0" encoding="UTF-8"?>
<svg xmlns="http://www.w3.org/2000/svg" xmlns:xlink="http://www.w3.org/1999/xlink" viewBox="0 0 113.34 113.39">
  <defs>
    <style>
      .cls-1 {
        fill: url(#Unbenannter_Verlauf_157);
      }

      .cls-2 {
        fill: url(#Unbenannter_Verlauf_124);
      }

      .cls-3 {
        fill: none;
        stroke: #1e1f1c;
        stroke-width: 3px;
      }

      .cls-4 {
        fill: url(#Unbenannter_Verlauf_23);
      }
    </style>
    <linearGradient id="Unbenannter_Verlauf_23" data-name="Unbenannter Verlauf 23" x1="0" y1="56.69" x2="113.34" y2="56.69" gradientUnits="userSpaceOnUse">
      <stop offset="0" stop-color="#f7eced" stop-opacity=".97"/>
      <stop offset=".76" stop-color="#f7eced" stop-opacity=".98"/>
      <stop offset="1" stop-color="#f7eced"/>
    </linearGradient>
    <linearGradient id="Unbenannter_Verlauf_124" data-name="Unbenannter Verlauf 124" x1="72.48" y1="74.14" x2="40.21" y2="41.87" gradientUnits="userSpaceOnUse">
      <stop offset="0" stop-color="#8d74ab" stop-opacity=".2"/>
      <stop offset=".22" stop-color="#8d74ab" stop-opacity=".45"/>
      <stop offset=".46" stop-color="#8d74ab" stop-opacity=".69"/>
      <stop offset=".68" stop-color="#8d74ab" stop-opacity=".86"/>
      <stop offset=".86" stop-color="#8d74ab" stop-opacity=".96"/>
      <stop offset="1" stop-color="#8d74ab"/>
    </linearGradient>
    <radialGradient id="Unbenannter_Verlauf_157" data-name="Unbenannter Verlauf 157" cx="56.26" cy="60.21" fx="56.26" fy="60.21" r="10.11" gradientTransform="translate(-1.06 -2.8) scale(.99)" gradientUnits="userSpaceOnUse">
      <stop offset=".2" stop-color="#181827" stop-opacity="0"/>
      <stop offset=".4" stop-color="#181827" stop-opacity=".5"/>
      <stop offset=".62" stop-color="#181827" stop-opacity=".87"/>
      <stop offset=".8" stop-color="#181827"/>
      <stop offset=".92" stop-color="#161725"/>
      <stop offset=".96" stop-color="#13141e"/>
      <stop offset=".99" stop-color="#0c1012"/>
      <stop offset="1" stop-color="#090e0c"/>
    </radialGradient>
  </defs>
  <g id="Ebene_2" data-name="Ebene 2">
    <rect class="cls-4" x="0" y="0" width="113.34" height="113.39" rx="8.5" ry="8.5"/>
  </g>
  <g id="Ebene_1" data-name="Ebene 1">
    <g>
      <g>
        <path class="cls-3" d="M83.64,50.73c2.19,1.64,4.39,3.27,6.58,4.91.03.02.45.36.45.97,0,.61-.42.94-.45.97-2.23,1.68-4.46,3.36-6.68,5.05"/>
        <polyline class="cls-3" points="34.07 32.97 34.08 21.48 44.54 28.14"/>
        <polyline class="cls-3" points="34.08 80.41 34.07 91.91 44.54 85.24"/>
      </g>
      <g>
        <path class="cls-2" d="M55.04,35.56c-11.67,0-21.13,9.46-21.13,21.13s9.46,21.13,21.13,21.13,21.13-9.46,21.13-21.13-9.46-21.13-21.13-21.13ZM54.53,66.68c-5.52,0-9.99-4.47-9.99-9.99s4.47-9.99,9.99-9.99,9.99,4.47,9.99,9.99-4.47,9.99-9.99,9.99Z"/>
        <path class="cls-1" d="M61.65,63.69c3.87-3.93,3.81-10.26-.12-14.12-3.93-3.87-10.26-3.81-14.12.13-3.87,3.93-3.81,10.26.12,14.12,3.93,3.87,10.26,3.81,14.12-.12Z"/>
      </g>
    </g>
  </g>
</svg>